<?xml version="1.0" encoding="UTF-8"?>
<svg xmlns="http://www.w3.org/2000/svg" version="1.1" viewBox="0 0 1096 1096">
    <defs>
        <style>
            .cls-1 {
            fill: #338ef7;
            }

            .cls-2 {
            fill: #006fee;
            }
        </style>
    </defs>
    <!-- Generator: Adobe Illustrator 28.6.0, SVG Export Plug-In . SVG Version: 1.2.0 Build 709)  -->
    <g>
        <g id="Ebene_1">
            <g id="Layer_1">
                <path class="cls-1" d="M541.4,793.6c-.3.9-.8,1.9-.9,2.8-.6,14.3-11.5,25.5-23,28.8-12.8,3.6-28.1-2.4-34.8-13.8-3.9-6.6-5.2-13.7-5.1-21.2,0-3.9.1-7.9,0-11.8,0-1.3-.5-2.6-.6-4.1.4-1.1.9-2.1.9-2.9v-114.6c0-1.1-.4-2.3-.6-3.4.1-4.4.4-8.8.4-13.2,0-23.6-.1-47.2,0-70.7,0-3.6-.8-5.9-4.1-7.9-11.5-7.2-21.9-15.7-30.8-26-12.2-14-21.5-29.6-27.6-47.2-5.2-15.1-8.1-30.6-7.8-46.6.2-15,2.6-29.6,7.6-44,4.9-14.2,11.8-27.2,20.7-39.2,10.3-13.9,22.9-25.3,37.5-34.5,1.4-.9,2.7-2.1,4.4-3.1,1.1-.3,1.7-.4,2.4-.7,6.5-3.1,12.9-6.3,19.5-9,4.6-1.9,9.6-3.1,14.5-4.3,5.1-1.3,10.4-2.3,15.6-3.3,3.6-.6,7.2-1,10.8-1.5,4.8,0,9.6,0,14.7.2.4,2.3.5,4.5.5,6.7-.1,9.1-.4,18.2-.4,27.4,0,12.2,0,24.4-.4,36.5-18.7-1.5-35.6,3-50.2,14.5-15,11.8-23.9,27.4-26.3,46.2-2.6,20.1,2.7,38.4,15.7,54.1,8.2,9.9,18.5,16.9,30.6,21.3,7.6,2.8,15.6,3.2,23.6,4.5,0,23.3,0,46.3-.3,69.4-1.7,0-3.1.1-4.6,0-2.1,0-2.8.9-2.8,2.9v31.8c0,2.1.9,2.6,2.8,2.4,2.4-.2,4.7-.4,7-.3,14.1.7,29.1,12.1,31,30.6,1.7,16.6-10.7,32.1-25.8,35.3-4.7,1-9.5,1-14.7,1.5,0,.3-.2,1.1-.2,2.1v30.8c0,1.1.4,2.1.5,3.3-.2,1-.4,1.8-.4,2.6v65.2c0,.9.4,1.6.7,2.5h0Z"/>
                <path class="cls-2" d="M555.2,372.8c0-12.2,0-24.4.1-36.6,0-9.1.4-18.2.4-27.4,0-2.2,0-4.4-.3-6.7,0-11.2,4.2-20,13.3-26.6,12.5-9,30.7-7.3,40.7,4.6,2.7,3.1,4.4,7.1,6.6,11,.1.6.3.9.4,1.2,0,.2,0,.4.1,1,0,.4,0,.6.2.6,0,.2.1.4.3,1,0,.4,0,.6.2.6.1.6.2,1.1.2,2,0,2.1.3,3.8.5,5.6,0,.4,0,.7-.1,1.5,0,1.7,0,3.1,0,4.5,0,.4,0,.7-.1,1.5,0,3.3,0,6.3.1,9.3,0,.2,0,.4,0,1.1v1.4c-.1,9.1-.4,18-.5,26.9v91.3c0,.9.3,1.7.4,2.6,0,.8-.1,1.6-.3,2.7,0,.2,0,.4,0,.4,0,.9,0,1.8,0,3.1,0,3.2,0,6,0,8.7v1.6c0,4.3,0,8.1,0,12v15.1c0,4.3,0,8.1,0,12v1.6c0,8.8,0,17.1,0,25.5v1.4c-.1.4-.1.4-.1.5,0,.1,0,.2.1.4.1,1.3.3,2.6.4,4.1v.3c19.9,12.1,36.4,27.8,48.8,47.7,10.5,16.9,17.3,35.2,19.9,54.9,3.1,22.5.9,44.6-6.8,65.9-8.6,23.7-22.2,44-41.9,59.8-6.4,5.2-13.3,9.8-20.3,14.8-5.9,2.7-11.5,5.6-17.1,8-11.6,5-23.7,8.2-36.2,9.5-3.3.4-6.6.9-9.8,1.2h-13.5c-.5-.9-.9-1.6-.9-2.5v-65.2c0-.8.2-1.6.7-2.6,20.4,1.4,38-4.3,53.1-17.6,11.8-10.4,19.3-23.5,22.4-39,2.6-12.9,1.5-25.4-2.9-37.7-4.4-12.3-12.1-22.6-22.4-30.8-6.9-5.5-14.4-10-22.9-12-6.7-1.6-13.6-2.4-20.4-3.4,0-23,0-46,.3-69.4.9-.3,1.7-.3,2.4-.3q4.7,0,4.7-4.8v-29.4c0-1.1-.3-2.2-.4-3.3-22.8,3.6-39.5-12.5-40.5-30.8-.4-8.6,1.8-16.5,7.5-23,8.7-10,19.7-14.4,33.1-12.1,0-1.3.2-2.2.3-3.2v-29.7c0-1.4-.3-2.7-.4-4v-.3Z"/>
                <path class="cls-2" d="M477.2,653.3c.4,1.1.8,2.3.8,3.4v114.6c0,.9-.4,1.8-.9,2.8-20.2-11.9-36.4-27.6-48.6-47.4-8.1-13.3-14.3-27.3-17.4-42.5-1.9-9.2-2.5-18.7-3.6-28.1-.4-2.9,1.6-2.9,3.6-2.9,13.7,0,27.5.2,41.3.3,8.2,0,16.4-.1,24.8-.2h0Z"/>
                <path class="cls-1" d="M618.7,442.9c-.4-.9-.6-1.7-.7-2.6v-91.3c.1-8.9.3-17.7.6-26.9.3-.3.4-.3.4-.3,20.9,12.2,37.3,28.8,49.7,49.4,9.4,15.7,15.5,32.6,18.3,50.7.8,5.1,1.1,10.3,1.4,15.5.3,5,.2,5-4.6,5h-56.9c-2.7,0-5.3.2-8.3.4h0Z"/>
                <path class="cls-1" d="M555.2,793.8c3.2-.6,6.5-1.1,9.8-1.5,12.5-1.3,24.6-4.5,36.2-9.5,5.7-2.4,11.2-5.2,17-7.8.2,15.7.2,31.3.2,47s0,4.2-4.3,4.3h-28.6c-8.5,0-17.1,0-25.6,0s-4.3,0-4.3-4.6c0-8.2,0-16.4,0-24.6s-.2-2.1-.4-3.4h0Z"/>
                <path class="cls-2" d="M540.5,301.7c-3.6.7-7.3,1.1-10.8,1.8-5.2.9-10.5,2-15.6,3.3-4.9,1.2-9.8,2.5-14.5,4.3-6.6,2.7-13,6.1-19.5,9-.6.3-1.4.4-2.2.6-.2-15.9-.2-31.8-.1-47.7,0-3.3.3-3.5,3.6-3.5h56.1c2.6,0,3.3,1,3.2,3.3v28.9h0Z"/>
            </g>
        </g>
    </g>
</svg>